<?xml version="1.0" standalone="no"?>
<!DOCTYPE svg PUBLIC "-//W3C//DTD SVG 20010904//EN"
 "http://www.w3.org/TR/2001/REC-SVG-20010904/DTD/svg10.dtd">
<svg version="1.0" xmlns="http://www.w3.org/2000/svg"
 width="138.000000pt" height="138.000000pt" viewBox="0 0 138.000000 138.000000"
 preserveAspectRatio="xMidYMid meet">
<metadata>
Created by potrace 1.14, written by Peter Selinger 2001-2017
</metadata>
<g transform="translate(0.000000,138.000000) scale(0.100000,-0.100000)"
fill="#000000" stroke="none">
<path d="M0 1294 c0 -82 3 -90 34 -85 5 1 6 -8 3 -19 -5 -20 -4 -20 16 -7 15
10 21 25 22 58 3 62 12 82 43 97 38 18 62 15 62 -7 0 -20 32 -37 50 -26 5 3
10 1 10 -4 0 -23 22 -9 35 22 l14 32 1 -27 c0 -16 5 -28 11 -28 6 0 9 6 6 13
-3 8 -1 20 4 28 7 12 9 12 9 -1 0 -13 1 -13 10 0 7 11 10 12 10 2 0 -7 7 -20
15 -28 13 -14 15 -13 15 10 0 24 4 27 28 26 4 -1 6 -10 4 -20 -2 -15 3 -20 19
-20 18 0 19 3 9 14 -9 12 -8 15 7 15 10 0 38 4 63 10 27 5 46 6 48 0 2 -5 12
-4 24 2 11 6 53 10 92 9 39 -1 81 -2 93 -2 15 0 20 -5 16 -15 -5 -13 -2 -13
15 -4 24 13 91 3 70 -10 -11 -7 -11 -9 1 -9 15 0 61 -45 61 -60 0 -5 8 -14 18
-19 10 -7 13 -14 7 -18 -16 -12 -18 -45 -3 -54 10 -7 10 -9 0 -9 -16 0 -14 -2
90 -110 43 -43 78 -83 78 -89 0 -5 3 -18 6 -28 4 -10 -16 4 -44 31 -28 27 -48
54 -45 59 3 6 1 7 -4 4 -6 -4 -36 7 -67 24 -32 17 -80 37 -109 45 -61 16 -141
19 -132 4 3 -6 -1 -13 -10 -16 -9 -4 -29 -19 -45 -35 -16 -16 -36 -29 -44 -29
-9 0 -16 -6 -16 -13 0 -9 -10 -12 -30 -9 -21 3 -32 0 -36 -12 -3 -9 -10 -13
-15 -10 -5 3 -9 1 -9 -4 0 -5 -11 -14 -25 -20 -14 -6 -25 -20 -25 -29 0 -15
-2 -16 -10 -3 -8 13 -10 12 -10 -4 0 -10 -11 -28 -24 -40 -28 -26 -39 -53 -23
-60 7 -2 -1 -5 -18 -6 -16 -1 -25 -4 -18 -6 14 -6 7 -31 -15 -57 -12 -13 -17
-15 -24 -5 -12 20 -10 -6 3 -35 8 -18 8 -30 0 -43 -6 -11 -11 -13 -11 -6 0 6
-5 12 -10 12 -6 0 -9 -3 -9 -7 5 -29 -3 -63 -13 -61 -20 4 -21 -49 -3 -105 19
-58 55 -113 114 -175 23 -24 41 -47 41 -51 0 -5 36 -26 80 -48 44 -21 80 -42
80 -46 0 -5 -9 -5 -21 -2 -12 4 -31 8 -44 10 -23 2 -23 1 -8 -21 18 -28 7 -32
-14 -6 -13 16 -14 15 -8 -5 7 -24 -3 -33 -25 -24 -10 4 -15 20 -15 45 0 37 -2
40 -27 39 -46 -2 -48 -2 -48 -18 0 -20 -24 -19 -44 1 -9 8 -16 11 -16 5 0 -6
-9 -11 -20 -11 -11 0 -20 7 -20 15 0 8 -7 15 -15 15 -9 0 -15 10 -16 23 -1 16
-2 18 -6 5 -2 -10 -11 -18 -19 -18 -8 0 -14 -7 -14 -15 0 -9 -6 -12 -15 -9 -8
4 -15 16 -15 29 0 13 -7 25 -15 29 -18 6 -20 36 -3 36 6 0 9 3 6 6 -4 3 -16 1
-27 -5 -18 -10 -20 -9 -15 6 3 10 -2 7 -10 -7 -8 -14 -15 -19 -16 -12 0 20
-17 14 -23 -9 -3 -12 -10 -18 -16 -14 -6 3 -11 1 -11 -6 0 -8 -4 -8 -15 1 -12
10 -15 9 -15 -8 0 -20 21 -44 36 -41 20 3 34 -2 34 -12 0 -7 -10 -9 -25 -5
-15 4 -25 2 -25 -4 0 -17 -20 -1 -29 22 -4 12 -8 -16 -9 -67 -2 -77 -1 -86 12
-75 21 16 39 8 41 -18 1 -15 -4 -22 -17 -22 -10 0 -18 -7 -18 -15 0 -13 88
-15 680 -15 l680 0 0 690 0 690 -690 -1 -690 0 0 -85z m57 30 c-3 -3 -12 -4
-19 -1 -8 3 -5 6 6 6 11 1 17 -2 13 -5z m3 -94 c0 -13 -5 -18 -15 -14 -12 5
-13 10 -4 20 15 19 19 18 19 -6z m1139 -495 c0 -24 -3 -20 -14 20 -18 63 -17
79 0 40 8 -16 14 -43 14 -60z m10 -125 c-5 -10 -8 5 -8 40 1 55 1 55 9 15 4
-22 4 -47 -1 -55z m-6 -60 c-3 -11 -7 -20 -9 -20 -2 0 -4 9 -4 20 0 11 4 20 9
20 5 0 7 -9 4 -20z m-288 -350 c3 -6 -1 -13 -10 -16 -13 -6 -14 -8 -3 -15 10
-7 11 -9 0 -9 -7 0 -10 -5 -6 -12 4 -7 3 -8 -4 -4 -7 4 -12 2 -12 -4 0 -7 -6
-8 -19 0 -15 7 -23 6 -35 -6 -9 -8 -20 -13 -25 -10 -5 4 -17 -1 -25 -10 -15
-14 -21 -11 -17 10 1 5 -5 6 -14 3 -8 -4 -15 -3 -15 2 0 5 -13 7 -30 5 -16 -2
-30 1 -30 6 0 6 -8 10 -17 10 -15 0 -16 2 -3 10 8 5 10 10 5 10 -6 0 -15 -4
-20 -9 -6 -6 -15 -4 -23 5 -11 12 2 14 90 15 57 0 123 6 148 13 60 18 58 17
65 6z m-780 -70 c3 -5 1 -10 -4 -10 -6 0 -11 5 -11 10 0 6 2 10 4 10 3 0 8 -4
11 -10z m580 -20 c3 -6 -1 -7 -9 -4 -18 7 -21 14 -7 14 6 0 13 -4 16 -10z
m-588 -51 c-5 -4 -2 -11 8 -16 11 -7 14 -13 7 -17 -12 -7 -28 21 -26 44 3 32
6 34 13 15 5 -11 4 -23 -2 -26z m-37 1 c-18 -11 -22 -7 -14 14 5 13 10 14 18
6 8 -8 7 -13 -4 -20z m110 18 c0 -9 4 -8 10 2 8 12 10 10 10 -9 0 -16 -4 -21
-14 -18 -9 4 -16 -1 -18 -11 -3 -12 -8 -8 -20 16 -16 32 -16 32 8 32 13 0 24
-6 24 -12z m50 -12 c0 -3 -4 -8 -10 -11 -5 -3 -10 -1 -10 4 0 6 5 11 10 11 6
0 10 -2 10 -4z"/>
<path d="M0 940 c0 -16 2 -30 4 -30 2 0 9 14 15 30 8 24 7 30 -5 30 -9 0 -14
-10 -14 -30z"/>
<path d="M16 905 c-3 -8 -1 -15 4 -15 6 0 10 7 10 15 0 8 -2 15 -4 15 -2 0 -6
-7 -10 -15z"/>
<path d="M2 590 c0 -14 2 -19 5 -12 2 6 2 18 0 25 -3 6 -5 1 -5 -13z"/>
<path d="M31 564 c0 -11 3 -14 6 -6 3 7 2 16 -1 19 -3 4 -6 -2 -5 -13z"/>
<path d="M60 561 c0 -11 4 -22 9 -25 4 -3 6 6 3 19 -5 30 -12 33 -12 6z"/>
<path d="M91 554 c0 -11 3 -14 6 -6 3 7 2 16 -1 19 -3 4 -6 -2 -5 -13z"/>
<path d="M0 536 c0 -9 5 -16 11 -16 7 0 18 -8 26 -17 12 -17 13 -16 11 7 -2
14 -7 25 -13 25 -5 0 -16 4 -22 8 -9 5 -13 3 -13 -7z"/>
<path d="M121 524 c0 -11 3 -14 6 -6 3 7 2 16 -1 19 -3 4 -6 -2 -5 -13z"/>
<path d="M85 510 c3 -5 11 -10 16 -10 6 0 7 5 4 10 -3 6 -11 10 -16 10 -6 0
-7 -4 -4 -10z"/>
<path d="M7 463 c3 -7 6 -13 8 -13 2 0 5 6 8 13 3 8 -1 14 -8 14 -7 0 -11 -6
-8 -14z"/>
<path d="M80 469 c0 -5 5 -7 10 -4 6 3 10 8 10 11 0 2 -4 4 -10 4 -5 0 -10 -5
-10 -11z"/>
<path d="M15 50 c-3 -5 -2 -10 4 -10 5 0 13 5 16 10 3 6 2 10 -4 10 -5 0 -13
-4 -16 -10z"/>
</g>
</svg>
